<svg xmlns="http://www.w3.org/2000/svg" width="109" height="20" viewBox="0 0 109 20">
    <g fill="none" fill-rule="evenodd">
        <path fill="#00A758" d="M18.182 0l-3.637 3.636V20l3.637-3.636zM10.91 0L7.272 3.636V20l3.636-3.636zM3.636 0L0 3.636V20l3.636-3.636z"/>
        <path fill="#FEFEFE" d="M89.986 2.703c-.798 0-1.465.659-1.465 1.469s.667 1.487 1.465 1.487c.779 0 1.446-.678 1.446-1.487 0-.81-.667-1.469-1.446-1.469zm13.61 6.346c1.391 0 2.189 1.205 2.189 2.486h-4.6c.037-1.206 1.076-2.486 2.411-2.486zm.167 7.156c-1.428 0-2.633-1.205-2.652-2.9h7.066c.112-4.294-1.817-6.12-4.562-6.12-2.875 0-4.86 2.372-4.86 5.498 0 3.239 1.837 5.499 4.786 5.499 1.873 0 3.487-.998 4.32-2.241l-1.427-1.356c-.483.885-1.595 1.62-2.67 1.62zM88.8 17.937h2.374V7.43H88.8v10.508zM96.235 7.43V5.396c0-.904.593-1.45 1.317-1.45.463 0 .945.188 1.26.376l.724-1.807c-.501-.264-1.335-.546-2.337-.546-2.151 0-3.246 1.562-3.246 3.295v2.165h-1.39V9.35h1.39v8.587h2.282V9.35h2.17l.537-1.92h-2.707zM83.997 17.937h2.28V1.818l-2.28 2.297v13.822zM58.3 14.887c-.556.715-1.447 1.43-2.522 1.43-.909 0-1.614-.564-1.614-1.393 0-1.167 1.187-1.657 2.541-1.827l1.558-.188h.037v1.978zm-1.465-7.702c-1.836 0-3.246.734-4.043 1.789l1.298 1.563c.408-.66 1.502-1.488 2.634-1.488.983 0 1.632.508 1.632 1.205 0 .565-.297 1.036-1.131 1.111l-.854.094c-2.188.245-4.432 1.13-4.432 3.559 0 1.996 1.502 3.164 3.32 3.164 1.576 0 2.466-.772 3.023-1.431v1.186h2.3V10.5c0-2.071-1.373-3.314-3.747-3.314zm22.362 7.645c-.65.734-1.484 1.318-2.374 1.318-1.076 0-1.595-.847-1.595-2.071V7.429h-2.282v7.401c0 2.636 1.855 3.352 3.19 3.352 1.336 0 2.356-.772 2.986-1.375v1.13h2.356V7.43h-2.281v7.401zm-10.92-7.645c-1.336 0-2.56.677-3.376 1.43V7.43H62.62v10.508H64.9v-7.551c.52-.49 1.632-1.243 2.504-1.243 1.057 0 1.484.885 1.484 1.92v6.874h2.28v-7.476c0-2.56-1.669-3.276-2.893-3.276zm-24.958 3.343h-.038l-4.228-7.175h-2.69v14.584h2.486V7.61h.037l4.377 7.344L47.62 7.61h.037v10.328h2.504V3.353h-2.633l-4.21 7.175z"/>
    </g>
</svg>
